<svg width="40" height="40" viewBox="0 0 40 40" xmlns="http://www.w3.org/2000/svg">
  <!-- 圆形背景 - 渐变色 -->
  <defs>
    <linearGradient id="aiGradient" x1="0%" y1="0%" x2="100%" y2="100%">
      <stop offset="0%" style="stop-color:#6366F1;stop-opacity:1" />
      <stop offset="100%" style="stop-color:#EC4899;stop-opacity:1" />
    </linearGradient>
  </defs>
  
  <circle cx="20" cy="20" r="20" fill="url(#aiGradient)"/>
  
  <!-- 创意工具图标 -->
  <g transform="translate(10, 10)">
    <!-- 六边形主体 -->
    <path d="M10 0L18.6603 5V15L10 20L1.33975 15V5L10 0Z" fill="white"/>
    
    <!-- 内部创意图案 - SA字样 -->
    <path d="M8.5 4.5L5.5 15.5M11.5 4.5L14.5 15.5M7 10H13" stroke="#6366F1" stroke-width="2" stroke-linecap="round" stroke-linejoin="round"/>
    
    <!-- 画笔装饰元素 -->
    <g transform="translate(16, 8) rotate(30)">
      <path d="M0 0L3 10" stroke="#FF9F1C" stroke-width="1.5" stroke-linecap="round"/>
      <path d="M0 10L3 0" stroke="#FF9F1C" stroke-width="1.5" stroke-linecap="round"/>
      <circle cx="1.5" cy="5" r="1.5" fill="#FF9F1C"/>
    </g>
  </g>
  
  <!-- 点缀装饰 -->
  <circle cx="5" cy="20" r="1" fill="#FF9F1C"/>
  <circle cx="35" cy="15" r="1" fill="#2EC4B6"/>
  <circle cx="30" cy="5" r="1" fill="#FF9F1C"/>
  <circle cx="10" cy="35" r="1" fill="#E71D36"/>
</svg> 